There's No Such Thing as Free Cable

The manic madness of Jim Carrey strikes again in this totally wired, out of control comedy! Slip the cable guy fifty bucks and you'll get the movie channels for free - it's a time honoured urban ritual. But when Steven Kovacs (Matthew Broderick) moves into his new apartment he picks the wrong cable guy - this guy doesn't want fifty bucks; he just wants a friend for life. And he won't take no for an answer.



Format                           : MPEG-4
Format profile                   : Base Media / Version 2
Codec ID                         : mp42
File size                        : 900 MiB
Duration                         : 1h 31mn
Overall bit rate                 : 1 370 Kbps
Encoded date                     : UTC 2010-01-16 07:55:14
Tagged date                      : UTC 2010-01-16 12:31:15
Writing application              : HandBrake 0.9.3 2008112300

Video
ID                               : 1
Format                           : AVC
Format/Info                      : Advanced Video Codec
Format profile                   : Main@L4.0
Format settings, CABAC           : Yes
Format settings, ReFrames        : 3 frames
Codec ID                         : avc1
Codec ID/Info                    : Advanced Video Coding
Duration                         : 1h 31mn
Bit rate mode                    : Variable
Bit rate                         : 1 206 Kbps
Width                            : 704 pixels
Height                           : 428 pixels
Display aspect ratio             : 2.35:1
Frame rate mode                  : Variable
Frame rate                       : 25.000 fps
Minimum frame rate               : 12.500 fps
Maximum frame rate               : 25.000 fps
Resolution                       : 24 bits
Colorimetry                      : 4:2:0
Scan type                        : Progressive
Bits/(Pixel*Frame)               : 0.160
Stream size                      : 792 MiB (88%)
Writing library                  : x264 core 65


Audio
ID                               : 2
Format                           : AAC
Format/Info                      : Advanced Audio Codec
Format version                   : Version 4
Format profile                   : LC
Format settings, SBR             : No
Codec ID                         : 40
Duration                         : 1h 31mn
Bit rate mode                    : Variable
Bit rate                         : 160 Kbps
Maximum bit rate                 : 214 Kbps
Channel(s)                       : 2 channels
Channel positions                : L R
Sampling rate                    : 48.0 KHz
Resolution                       : 16 bits
Stream size                      : 105 MiB (12%)
Language                         : English
Encoded date                     : UTC 2010-01-16 07:55:14
Tagged date                      : UTC 2010-01-16 12:31:05

